:FULLY-SPECIFIED
:FORCE-ALL-JOINTS-BE-3DOF
:DEGREES
1325
root -1.55535 15.1017 6.35796 -9.59524 30.2136 0.774463
lfemur -4.86791 7.13592 -18.3274
ltibia 58.8914 -0 0
lfoot -28.0869 24.2962 -0.0154252
ltoes -13.7398 0 0
rfemur -42.4195 -1.71262 0.57719
rtibia 33.819 -0 0
rfoot 27.1171 4.63833 0.239459
rtoes 8.02436 -0 0
lowerback 12.7977 0.303864 -10.48
upperback -1.45342 -1.14489 1.3686
thorax -8.54616 -0.020944 7.6561
lowerneck -4.99683 -7.77351 -9.71734
upperneck 14.8382 -10.4767 5.97098
head 6.29263 -5.24463 2.61535
lclavicle 2.16691e-14 -7.27968e-15 -5.88865e-31
lhumerus -41.8198 -41.2335 116.658
lradius 111.302 -0 0
lwrist 42.612 0 0
lhand -29.2678 54.6024 0.00998184
lfingers 7.12502 -0 0
lthumb -2.71375 76.4471 -0.184623
rclavicle 2.16691e-14 -7.27968e-15 -5.88865e-31
rhumerus 39.8556 23.044 -54.5482
rradius 102.108 -0 0
rwrist -4.34329 0 0
rhand -26.4329 -30.0766 0.0271296
rfingers 7.12502 -0 0
rthumb 0.11692 -59.8898 0.0792481
1326
root -1.57073 15.1026 6.42573 -9.66362 30.9575 0.62334
lfemur -5.05171 7.17535 -18.2935
ltibia 59.069 -0 0
lfoot -28.015 24.2826 -0.0170534
ltoes -13.7615 0 0
rfemur -42.4205 -1.70517 0.659294
rtibia 33.9675 -0 0
rfoot 26.8727 4.57914 0.264811
rtoes 7.82798 -0 0
lowerback 12.8212 0.313319 -10.4011
upperback -1.45336 -1.12249 1.38185
thorax -8.56006 -0.013704 7.62057
lowerneck -5.00124 -7.68987 -9.64898
upperneck 14.7943 -10.3569 5.89892
head 6.27733 -5.18879 2.58561
lclavicle 2.14264e-14 -7.43489e-15 -6.51006e-31
lhumerus -41.6744 -41.3519 116.552
lradius 111.331 -0 0
lwrist 42.4348 0 0
lhand -29.254 54.6489 0.0110353
lfingers 7.12502 -0 0
lthumb -2.71047 75.5916 -0.204965
rclavicle 2.14264e-14 -7.43489e-15 -6.51006e-31
rhumerus 39.5094 23.2155 -54.5837
rradius 102.145 -0 0
rwrist -4.56828 0 0
rhand -26.2413 -30.0678 0.0299979
rfingers 7.12502 -0 0
rthumb 0.300807 -59.8631 0.0876256
1327
root -1.58611 15.1035 6.49349 -9.73486 31.7012 0.469976
lfemur -5.23551 7.21489 -18.2598
ltibia 59.2466 -0 0
lfoot -27.9431 24.2689 -0.0186645
ltoes -13.7831 0 0
rfemur -42.4216 -1.69772 0.741397
rtibia 34.1159 -0 0
rfoot 26.6282 4.51985 0.28991
rtoes 7.6316 -0 0
lowerback 12.8447 0.322742 -10.3222
upperback -1.4533 -1.10009 1.39509
thorax -8.57396 -0.00647261 7.58505
lowerneck -5.00556 -7.60622 -9.58063
upperneck 14.7504 -10.237 5.82679
head 6.262 -5.13296 2.55586
lclavicle 2.11836e-14 -7.5901e-15 -7.1249e-31
lhumerus -41.5284 -41.4701 116.445
lradius 111.361 -0 0
lwrist 42.2575 0 0
lhand -29.2403 54.6954 0.0120777
lfingers 7.12502 -0 0
lthumb -2.7069 74.7362 -0.225256
rclavicle 2.11836e-14 -7.5901e-15 -7.1249e-31
rhumerus 39.1627 23.3867 -54.6205
rradius 102.181 -0 0
rwrist -4.79327 0 0
rhand -26.0497 -30.059 0.0328368
rfingers 7.12502 -0 0
rthumb 0.484698 -59.8363 0.0959172
1328
root -1.60148 15.1043 6.56126 -9.80903 32.4447 0.314263
lfemur -5.41929 7.25453 -18.2261
ltibia 59.4242 -0 0
lfoot -27.8711 24.2553 -0.0202584
ltoes -13.8048 0 0
rfemur -42.4226 -1.69027 0.8235
rtibia 34.2644 -0 0
rfoot 26.3837 4.46045 0.314756
rtoes 7.43521 -0 0
lowerback 12.8682 0.332133 -10.2433
upperback -1.45323 -1.07769 1.40833
thorax -8.58787 0.000750135 7.54952
lowerneck -5.00977 -7.52257 -9.5123
upperneck 14.7063 -10.1173 5.7546
head 6.24664 -5.07714 2.5261
lclavicle 2.09409e-14 -7.74531e-15 -7.73317e-31
lhumerus -41.3819 -41.5881 116.338
lradius 111.39 -0 0
lwrist 42.0803 0 0
lhand -29.2266 54.7419 0.0131089
lfingers 7.12502 -0 0
lthumb -2.70302 73.8807 -0.24549
rclavicle 2.09409e-14 -7.74531e-15 -7.73317e-31
rhumerus 38.8154 23.5578 -54.6584
rradius 102.218 -0 0
rwrist -5.01826 0 0
rhand -25.8581 -30.0503 0.0356463
rfingers 7.12502 -0 0
rthumb 0.668593 -59.8095 0.104123
1329
root -1.61686 15.1052 6.62903 -9.88624 33.1881 0.156092
lfemur -5.60307 7.29428 -18.1926
ltibia 59.6018 -0 0
lfoot -27.7992 24.2416 -0.0218352
ltoes -13.8264 0 0
rfemur -42.4236 -1.68281 0.905602
rtibia 34.4128 -0 0
rfoot 26.1391 4.40094 0.339348
rtoes 7.23883 -0 0
lowerback 12.8917 0.341491 -10.1644
upperback -1.45315 -1.05529 1.42158
thorax -8.60179 0.00796425 7.51399
lowerneck -5.01388 -7.43892 -9.44399
upperneck 14.662 -9.99756 5.68235
head 6.23126 -5.02133 2.49632
lclavicle 2.06981e-14 -7.90052e-15 -8.33485e-31
lhumerus -41.2348 -41.7059 116.23
lradius 111.42 -0 0
lwrist 41.903 0 0
lhand -29.2129 54.7884 0.014129
lfingers 7.12502 -0 0
lthumb -2.69884 73.0253 -0.265665
rclavicle 2.06981e-14 -7.90052e-15 -8.33485e-31
rhumerus 38.4676 23.7286 -54.6975
rradius 102.255 -0 0
rwrist -5.24325 0 0
rhand -25.6665 -30.0415 0.0384264
rfingers 7.12502 -0 0
rthumb 0.852491 -59.7826 0.112242
1330
root -1.63223 15.1061 6.6968 -9.9666 33.9313 -0.00465392
lfemur -5.78684 7.33414 -18.1592
ltibia 59.7794 -0 0
lfoot -27.7273 24.2279 -0.0233948
ltoes -13.8481 0 0
rfemur -42.4246 -1.67536 0.987705
rtibia 34.5612 -0 0
rfoot 25.8946 4.34133 0.363686
rtoes 7.04245 -0 0
lowerback 12.9152 0.350817 -10.0855
upperback -1.45307 -1.03289 1.43482
thorax -8.61571 0.0151697 7.47846
lowerneck -5.01789 -7.35526 -9.3757
upperneck 14.6176 -9.87791 5.61002
head 6.21584 -4.96552 2.46653
lclavicle 2.04554e-14 -8.05574e-15 -8.92997e-31
lhumerus -41.0871 -41.8235 116.122
lradius 111.449 -0 0
lwrist 41.7257 0 0
lhand -29.1992 54.8349 0.015138
lfingers 7.12502 -0 0
lthumb -2.69436 72.1698 -0.285775
rclavicle 2.04554e-14 -8.05574e-15 -8.92997e-31
rhumerus 38.1191 23.8992 -54.7378
rradius 102.291 -0 0
rwrist -5.46824 0 0
rhand -25.4749 -30.0326 0.0411771
rfingers 7.12502 -0 0
rthumb 1.03639 -59.7558 0.120276
1331
root -1.64761 15.1069 6.76456 -10.0502 34.6743 -0.168095
lfemur -5.97061 7.3741 -18.1259
ltibia 59.957 -0 0
lfoot -27.6554 24.2143 -0.0249373
ltoes -13.8697 0 0
rfemur -42.4256 -1.6679 1.06981
rtibia 34.7097 -0 0
rfoot 25.65 4.28162 0.387769
rtoes 6.84607 -0 0
lowerback 12.9387 0.36011 -10.0066
upperback -1.45299 -1.01049 1.44807
thorax -8.62963 0.0223666 7.44293
lowerneck -5.0218 -7.27159 -9.30743
upperneck 14.5731 -9.75831 5.53763
head 6.2004 -4.90972 2.43672
lclavicle 2.02126e-14 -8.21095e-15 -9.5185e-31
lhumerus -40.9389 -41.9409 116.012
lradius 111.479 -0 0
lwrist 41.5485 0 0
lhand -29.1855 54.8814 0.0161359
lfingers 7.12502 -0 0
lthumb -2.68958 71.3144 -0.305816
rclavicle 2.02126e-14 -8.21095e-15 -9.5185e-31
rhumerus 37.7701 24.0696 -54.7793
rradius 102.328 -0 0
rwrist -5.69323 0 0
rhand -25.2833 -30.0238 0.0438983
rfingers 7.12502 -0 0
rthumb 1.2203 -59.7289 0.128223
1332
root -1.66299 15.1078 6.83233 -10.1372 35.4171 -0.33436
lfemur -6.15437 7.41417 -18.0928
ltibia 60.1346 -0 0
lfoot -27.5835 24.2006 -0.0264626
ltoes -13.8914 0 0
rfemur -42.4266 -1.66045 1.15191
rtibia 34.8581 -0 0
rfoot 25.4053 4.2218 0.411597
rtoes 6.64968 -0 0
lowerback 12.9623 0.369371 -9.92772
upperback -1.4529 -0.988087 1.46131
thorax -8.64356 0.0295548 7.40739
lowerneck -5.0256 -7.18792 -9.23918
upperneck 14.5285 -9.63876 5.46517
head 6.18493 -4.85393 2.40691
lclavicle 1.99699e-14 -8.36616e-15 -1.01005e-30
lhumerus -40.79 -42.058 115.903
lradius 111.508 -0 0
lwrist 41.3712 0 0
lhand -29.1718 54.9278 0.0171226
lfingers 7.12502 -0 0
lthumb -2.68451 70.4589 -0.325784
rclavicle 1.99699e-14 -8.36616e-15 -1.01005e-30
rhumerus 37.4204 24.2398 -54.8219
rradius 102.364 -0 0
rwrist -5.91822 0 0
rhand -25.0917 -30.015 0.04659
rfingers 7.12502 -0 0
rthumb 1.40421 -59.702 0.136084
1333
root -1.67836 15.1086 6.9001 -10.2276 36.1597 -0.503582
lfemur -6.33812 7.45435 -18.0598
ltibia 60.3122 -0 0
lfoot -27.5116 24.1869 -0.0279707
ltoes -13.913 0 0
rfemur -42.4276 -1.65299 1.23401
rtibia 35.0066 -0 0
rfoot 25.1607 4.16188 0.43517
rtoes 6.4533 -0 0
lowerback 12.9859 0.3786 -9.84881
upperback -1.45281 -0.965687 1.47455
thorax -8.65749 0.0367344 7.37185
lowerneck -5.02931 -7.10425 -9.17094
upperneck 14.4837 -9.51928 5.39264
head 6.16943 -4.79815 2.37708
lclavicle 1.97271e-14 -8.52137e-15 -1.06758e-30
lhumerus -40.6406 -42.175 115.793
lradius 111.538 -0 0
lwrist 41.194 0 0
lhand -29.1581 54.9743 0.0180982
lfingers 7.12502 -0 0
lthumb -2.67913 69.6034 -0.345673
rclavicle 1.97271e-14 -8.52137e-15 -1.06758e-30
rhumerus 37.0702 24.4097 -54.8658
rradius 102.401 -0 0
rwrist -6.14321 0 0
rhand -24.9001 -30.0062 0.0492522
rfingers 7.12502 -0 0
rthumb 1.58812 -59.6751 0.143858
1334
root -1.69374 15.1095 6.96787 -10.3217 36.9021 -0.675902
lfemur -6.52187 7.49463 -18.0269
ltibia 60.4898 -0 0
lfoot -27.4396 24.1732 -0.0294617
ltoes -13.9347 0 0
rfemur -42.4286 -1.64553 1.31611
rtibia 35.155 -0 0
rfoot 24.916 4.10187 0.458486
rtoes 6.25692 -0 0
lowerback 13.0094 0.387796 -9.76989
upperback -1.45271 -0.943287 1.4878
thorax -8.67143 0.0439053 7.33632
lowerneck -5.03291 -7.02057 -9.10272
upperneck 14.4388 -9.39984 5.32004
head 6.15391 -4.74237 2.34724
lclavicle 1.94844e-14 -8.67658e-15 -1.12447e-30
lhumerus -40.4907 -42.2917 115.682
lradius 111.567 -0 0
lwrist 41.0167 0 0
lhand -29.1443 55.0208 0.0190626
lfingers 7.12502 -0 0
lthumb -2.67346 68.748 -0.36548
rclavicle 1.94844e-14 -8.67658e-15 -1.12447e-30
rhumerus 36.7193 24.5794 -54.9108
rradius 102.437 -0 0
rwrist -6.3682 0 0
rhand -24.7085 -29.9973 0.0518848
rfingers 7.12502 -0 0
rthumb 1.77204 -59.6481 0.151546
